<svg xmlns="http://www.w3.org/2000/svg" viewBox="0 0 324.68 37.41"><path d="M36.78 5l.87-5h1.83C46.36 0 51 5.58 49.74 12.46S42 24.92 35.09 24.92h-1.83l.88-5h-7.85l.87-5 7.72.08 1-5.07H28l.88-5zM10.43 24.89C2.58 24.89-.84 18.17.17 12.45A15 15 0 0 1 14.81 0h9.31l-.88 5h-7.86l-.88 5h7.86l-.88 5h-7.85l-.88 5h7.85l-.87 4.94h-9.3zM67 5.49h.07l.52 10h-2.34v4.11h2.59l.28 5.18h4.5L71 .17h-5.75v9.56zm-1.74 10h-2.34l2.33-5.71V.17H65L54.55 24.78h4.54l2.24-5.18h3.92zm13.75 9.29l2.8-15.89h.07l4.39 15.89h4.5L95.11.17h-4.3l-2.57 14.59h-.07L84.2.17h-5.15l-4.33 24.61h4.29zm28.75 0l.73-4.16h-8.52l1.14-6.48h6.24l.73-4.15h-6.23l.99-5.66h8.18l.74-4.16H98.87l-4.34 24.61h13.23zm16.68 0l.73-4.16h-8.52l1.14-6.48h6.24l.73-4.15h-6.23l.99-5.66h8.18l.74-4.16h-12.89l-4.34 24.61h13.23zm15.53 0l.73-4.16h-7.57L136.74.17h-4.7l-4.34 24.61h12.27zm-59.98 6.39l-1.13 6.18h3.13l.1-.57h-2.41l.43-2.37h1.7l.11-.57h-1.7l.38-2.1h2.31l.1-.57h-3.02zm4.5 1.24l-.9 4.94h.57l.78-4.3h.02l.85 4.3h.62l.9-4.94h-.57l-.66 3.64h-.02l-.69-3.64h-.9zm4.43 0l-.91 4.94h2.51l.08-.45h-1.93l.34-1.91h1.37l.08-.45H89.1l.3-1.68h1.85l.08-.45h-2.41zm4.99.45c.76 0 1 .31.86.85a.92.92 0 0 1-.86.83v1.65l.21 1.16h.6l-.45-2.45a1.5 1.5 0 0 0 1.07-1.21c.15-.82-.36-1.28-1.21-1.28h-.22zm-.57 0h.57v-.45h-1.06L92 37.35h.57l.37-2.35h.76l.21 1.18v-1.64a2.17 2.17 0 0 1-.38 0H93zm6.36 1.07c.07-.8-.14-1.59-1.11-1.59s-1.64.67-2 2.54.12 2.53 1 2.53a1.42 1.42 0 0 0 1-.43v.37h.37l.53-2.35H98.2l-.08.46h.72l-.13.69a.89.89 0 0 1-1 .78c-.64 0-.85-.53-.56-2.08s.69-2.09 1.32-2.09.7.49.62 1.14zm1.9-1.52l-.91 4.94h.58l.9-4.94h-.57zm3.33.37l.1 2.65h-.59v.45h.59v1.47h.58l-.27-4.94h-.79l-.15.37V34zm-.47 2.65h-.6l.6-1.47v-1.18l-1.92 4.57h.58l.58-1.47h.76zm6-4.26l-1.13 6.18h3.13l.11-.57h-2.42l.44-2.37h1.7l.1-.57h-1.7l.38-2.1h2.31l.1-.57h-3.02zm4.58 1.24l-.9 4.94h2.28l.08-.45h-1.71l.82-4.49h-.57zm5.81-1.21h-.57l-.89.95h.37l1.09-.95zm-2.27 1.21l-.91 4.94h2.51l.08-.46h-1.94l.35-1.9H120l.08-.45h-1.37l.31-1.68h1.85l.08-.45zM5.6 31.62l.12 3.32H5v.56h.74l.06 1.83h.71l-.32-6.18h-1l-.2.48v1.47zM5 34.94h-.74L5 33.1v-1.47l-2.39 5.7h.72l.73-1.83H5zm6.32-1.03c.07-.79-.13-1.59-1.11-1.59s-1.63.67-2 2.54.12 2.54 1 2.54a1.41 1.41 0 0 0 1-.44v.37h.37l.54-2.33H9.83l-.08.45h.72l-.13.7a.9.9 0 0 1-1 .78c-.64 0-.85-.54-.57-2.09s.69-2.09 1.33-2.09.7.5.62 1.14zm2.1-1.78h.47l.64-.7.4.7h.47l-.57-.94h-.5l-.91.94zm-.25.26l-.9 4.94h2.5l.09-.45h-1.94l.35-1.9h1.36l.08-.45h-1.36l.31-1.69h1.85l.08-.45zm3.86 0l-.91 4.94h.58l.78-4.3h.02l.85 4.3h.62l.9-4.94h-.57l-.67 3.64h-.01l-.7-3.64h-.89zm6.88 1.49c.1-1.05-.29-1.56-1.07-1.56-.95 0-1.66.67-2 2.54s.16 2.54 1.07 2.54 1.53-.62 1.74-1.71h-.57C22.9 36.61 22.53 37 22 37s-.86-.55-.58-2.09.68-2.09 1.35-2.09c.44 0 .65.33.58 1.11zm1.92-1.49l-.91 4.94h.57l.91-4.94h-.57zm3.32.37l.1 2.66h-.6v.45h.59v1.46h.57l-.26-4.94h-.79l-.16.38V34zm-.48 2.66h-.59l.59-1.42v-1.23l-1.91 4.56h.57l.59-1.46h.75zm5.89-4.26l-1.13 6.17h.71l.99-5.37h.02l1.06 5.37h.77l1.13-6.17h-.71l-.84 4.54h-.01l-.87-4.54h-1.12zm6.24 1.6l.1 2.66h-.6v.45h.59l.11 1.46h.57l-.26-4.94h-.79l-.16.38V34zm-.48 2.66h-.59l.59-1.42v-1.23l-1.91 4.56H39l.59-1.46h.75zm5.81-1.54c.1-1.05-.29-1.56-1.07-1.56-1 0-1.65.67-2 2.54s.12 2.54 1.07 2.54 1.53-.62 1.74-1.71h-.57c-.18.92-.55 1.26-1.09 1.26s-.86-.55-.58-2.09.68-2.09 1.35-2.09c.44 0 .65.33.58 1.11zm1.92-1.49l-.91 4.94h.57l.91-4.94h-.57zm4.07 2.47c-.23 1.25-.56 1.8-.92 2v.47c.68-.22 1.22-1 1.49-2.47.34-1.84-.13-2.54-1-2.54a1.43 1.43 0 0 0-.46.07v.48a.75.75 0 0 1 .38-.1c.48 0 .82.41.51 2.09zm-.92 2a.85.85 0 0 1-.38.09c-.52 0-.85-.41-.54-2.09.23-1.25.55-1.8.92-2v-.48c-.68.22-1.22 1-1.49 2.47-.34 1.84.13 2.54 1 2.54a1.45 1.45 0 0 0 .47-.07zm3.37-4.47l-.9 4.94h.57l.78-4.3h.02l.85 4.3h.62l.9-4.94h-.57l-.66 3.64h-.02l-.69-3.64h-.9zm5.48.37l.1 2.66h-.6v.45h.6v1.46h.57l-.26-4.94h-.79l-.16.38V34zm-.48 2.66H59l.57-1.42v-1.23l-1.91 4.56h.57l.59-1.46h.75zm3.34-3.03l-.9 4.94h2.29l.08-.45h-1.72l.82-4.49h-.57zm6.62.45c.83 0 1.26.33 1 2-.21 1.13-.52 1.65-1 1.87v.5c.73-.24 1.25-.91 1.52-2.37.35-1.89-.22-2.47-1.34-2.47h-.18zm-.31 0h.31v-.45h-.8l-.9 4.94h1a2.37 2.37 0 0 0 .72-.1v-.5a1.61 1.61 0 0 1-.74.15h-.31zm3.85-.45l-.9 4.94h2.5l.09-.45h-1.94l.35-1.9h1.36l.08-.45h-1.36l.31-1.69h1.85l.08-.45h-2.42zm49.01.02l-.08.45h1.08l-.82 4.49h.57l.82-4.49h1.09l.08-.45h-2.74zm5.02.45c.77 0 1 .31.86.85a.91.91 0 0 1-.86.83v1.65l.21 1.16h.6l-.44-2.45a1.5 1.5 0 0 0 1.07-1.21c.15-.82-.37-1.28-1.22-1.28h-.22zm-.56 0h.56v-.45h-1l-.91 4.94h.58l.42-2.32h.75l.21 1.18v-1.67a2.17 2.17 0 0 1-.38 0h-.5zm3.9-.45l-.9 4.94h.57l.9-4.94h-.57zm4.74 1.49c.1-1.06-.29-1.56-1.07-1.56-1 0-1.66.67-2 2.54s.12 2.53 1.07 2.53 1.52-.61 1.74-1.7h-.57c-.18.91-.56 1.25-1.09 1.25s-.86-.54-.58-2.08.68-2.09 1.34-2.09c.45 0 .65.33.59 1.11zm2.95-1.12l.1 2.65h-.59v.45h.59v1.47h.57l-.26-4.94h-.79l-.16.37V34zm-.48 2.65h-.59l.59-1.47v-1.18l-1.91 4.57h.57l.58-1.47h.76zM321 14.66v-1a1.46 1.46 0 0 0 .32-.1 3.41 3.41 0 0 0 .65-.35l.31-1.36c-.36 0-.71.06-1 .11L321 12v-1.19c.49-.06 1-.1 1.57-.13a.74.74 0 0 1 0-.12.88.88 0 0 0 0-.17.58.58 0 0 0-.38-.57 3 3 0 0 0-1.13-.16H321V8.3h.79a4.79 4.79 0 0 1 2.22.39 1.32 1.32 0 0 1 .7 1.23 1.73 1.73 0 0 1 0 .3 2.4 2.4 0 0 1-.05.32l-1 4.37h-2.05l.16-.68-.47.3a1.91 1.91 0 0 1-.3.13zm0-6.36v1.36a4 4 0 0 0-1 .17c-.41.11-.72.21-.93.28h-.18l.3-1.52c.24-.06.61-.13 1.11-.2q.36-.06.72-.09zm0 2.51V12a3.92 3.92 0 0 0-.57.15 1.15 1.15 0 0 0-.53.35 1 1 0 0 0-.18.61.5.5 0 0 0 .24.47 1.5 1.5 0 0 0 .71.13 1.24 1.24 0 0 0 .33 0v1l-.24.12a3.05 3.05 0 0 1-1.38.27 1.91 1.91 0 0 1-1.38-.5 1.51 1.51 0 0 1-.5-1.17 2.27 2.27 0 0 1 .36-1.29 2.43 2.43 0 0 1 1.14-.84 5.93 5.93 0 0 1 1.58-.43l.42-.06zm-7.3 4.07v-.1l1.47-6.33h2.07l-1.49 6.43zm0-6v-.1.11zM317.84 6l-.36 1.56h-2.19l.36-1.56zm-4.17 2.8v.11l-.41 1.66H313a2.15 2.15 0 0 0-.76-.6 2.17 2.17 0 0 0-1-.2 1.94 1.94 0 0 0-1.56.69 2.52 2.52 0 0 0-.6 1.72 1.46 1.46 0 0 0 .37 1.07 1.59 1.59 0 0 0 1.13.35 2.38 2.38 0 0 0 1.08-.24 3.8 3.8 0 0 0 .84-.54h.3l-.44 1.75a7.27 7.27 0 0 1-1.08.39 5.71 5.71 0 0 1-1.22.11 4.51 4.51 0 0 1-1.23-.16 2.78 2.78 0 0 1-1-.51 2.37 2.37 0 0 1-.66-.84 2.92 2.92 0 0 1-.23-1.18 3.93 3.93 0 0 1 .33-1.61 4.06 4.06 0 0 1 .92-1.29 4.35 4.35 0 0 1 1.43-.87 5.43 5.43 0 0 1 3-.18 4.35 4.35 0 0 1 1.05.37zm0 6v.1-.1zm-19.21.27v-1.48h.3a3.46 3.46 0 0 0 1.28-.24 6.43 6.43 0 0 0 1-.5h.23l-.39 1.65a6 6 0 0 1-1.26.4 6.69 6.69 0 0 1-1.21.13zm0-3v-1.23h1.37a1.37 1.37 0 0 0 0-.19 1 1 0 0 0 0-.18.85.85 0 0 0-.28-.69 1.19 1.19 0 0 0-.81-.24 1.55 1.55 0 0 0-.31 0V8.28a4.93 4.93 0 0 1 .55 0 3.44 3.44 0 0 1 2.16.58 2.06 2.06 0 0 1 .73 1.72 3.84 3.84 0 0 1-.07.76 5.13 5.13 0 0 1-.21.74zm0-4.9v-1.5l.39-.38h1.44l1.32 2.25h-1.46l-.77-1.25-.92.86zm11.47 2.76v.37a3.83 3.83 0 0 1-.08.42l-1 4.18h-2.08l.73-3.19c.06-.23.1-.43.13-.6a2.71 2.71 0 0 0 0-.47.74.74 0 0 0-.18-.55 1.1 1.1 0 0 0-.7-.17 1.84 1.84 0 0 0-.56.11 3.63 3.63 0 0 0-.72.32l-1 4.55h-2.07l1.48-6.43H302l-.16.71a9.46 9.46 0 0 1 1.16-.67 2.76 2.76 0 0 1 1.16-.23 2 2 0 0 1 1.34.41 1.54 1.54 0 0 1 .43 1.22zm-11.47-4.26v1.48l-.42.39h-1.54l2-1.87zm0 2.61v1.29a1.48 1.48 0 0 0-.75.31 2.12 2.12 0 0 0-.66 1h1.41v1.21h-1.61v.13a1.29 1.29 0 0 0 .47 1.05 2 2 0 0 0 1.14.36v1.46h-.21a3.93 3.93 0 0 1-2.53-.72 2.45 2.45 0 0 1-.89-2 4.19 4.19 0 0 1 .29-1.61 3.72 3.72 0 0 1 2.16-2.14 4.44 4.44 0 0 1 1.18-.29zm-7.82 6.6v-.1l1.47-6.33h2.07l-1.49 6.43zm0-6v-.1.11zM290.81 6l-.36 1.56h-2.19l.36-1.56zm-4.17 2.8v.11l-.41 1.66h-.29a2.18 2.18 0 0 0-.77-.6 2.1 2.1 0 0 0-.95-.2 2 2 0 0 0-1.57.69 2.56 2.56 0 0 0-.59 1.72 1.42 1.42 0 0 0 .37 1.07 1.59 1.59 0 0 0 1.13.35 2.41 2.41 0 0 0 1.08-.24 3.8 3.8 0 0 0 .84-.54h.29l-.43 1.75a7.77 7.77 0 0 1-1.09.39 5.61 5.61 0 0 1-1.21.11 4.41 4.41 0 0 1-1.23-.16 2.78 2.78 0 0 1-1-.51 2.37 2.37 0 0 1-.66-.84 2.92 2.92 0 0 1-.23-1.18 3.9 3.9 0 0 1 1.25-2.9 4.35 4.35 0 0 1 1.43-.87 5.12 5.12 0 0 1 1.82-.31 5.18 5.18 0 0 1 1.17.13 4.35 4.35 0 0 1 1.05.37zm0 6v.1-.1zm-10.29.1v-2.76l.86-3.69h2.07l-1.49 6.43zm0-7.44V6c.25 0 .46 0 .64.08l-.34 1.46h-.3zM279.91 6l-.36 1.56h-2.19l.36-1.56zm-3.56 0v1.44l-.23-.05a2.48 2.48 0 0 0-.45 0 1.25 1.25 0 0 0-.83.23 1.72 1.72 0 0 0-.42.84H276l-.31 1.36h-1.52L273 14.88h-2v-.2l1.13-4.87h-.88l.3-1.36h.88l.05-.16a3.11 3.11 0 0 1 1-1.77 3.07 3.07 0 0 1 2.06-.6h.88zm0 6.19l-.63 2.74h.63v-2.79zM271 6.56v-.2zm0-.2v.2L270.64 8h-4l-.35 1.53H270l-.38 1.62h-3.69l-.5 2.15h4l-.36 1.61h-6.18l2-8.52zm0 8.32l-.05.2h.05v-.2zm-16.16.37v-1.46h.29a3.39 3.39 0 0 0 1.28-.24 5.72 5.72 0 0 0 1.05-.5h.23l-.38 1.65a5.88 5.88 0 0 1-1.27.4 6.58 6.58 0 0 1-1.2.13zm0-3v-1.21h1.36a.68.68 0 0 0 0-.19 1 1 0 0 0 0-.18.85.85 0 0 0-.28-.69 1.22 1.22 0 0 0-.81-.24 1.48 1.48 0 0 0-.31 0V8.28a4.8 4.8 0 0 1 .55 0 3.44 3.44 0 0 1 2.16.58 2.06 2.06 0 0 1 .73 1.72 3.22 3.22 0 0 1-.08.76 5.08 5.08 0 0 1-.2.74zm0-3.77v1.29a1.48 1.48 0 0 0-.75.31 2.12 2.12 0 0 0-.66 1h1.41v1.21h-1.64v.13a1.29 1.29 0 0 0 .47 1.05 2 2 0 0 0 1.14.36v1.46h-.21a3.93 3.93 0 0 1-2.53-.72 2.46 2.46 0 0 1-.9-2 4.2 4.2 0 0 1 .3-1.61 3.69 3.69 0 0 1 .84-1.29 3.76 3.76 0 0 1 1.31-.85 4.61 4.61 0 0 1 1.19-.29zm-8.2 6.27v-1.08l.18-.07a4 4 0 0 0 .59-.29l.73-3.16a2.29 2.29 0 0 0-.44-.14 1.78 1.78 0 0 0-.47-.07 1.87 1.87 0 0 0-.59.09V8.28h.07a3.52 3.52 0 0 1 .91.1 3.57 3.57 0 0 1 .8.33L249 6h2.07L249 14.88h-2l.15-.67zm0-6.27v1.55a1.36 1.36 0 0 0-.3.13 2.1 2.1 0 0 0-.67.59 2.92 2.92 0 0 0-.39.87 4 4 0 0 0-.14 1 1.15 1.15 0 0 0 .27.84 1.15 1.15 0 0 0 .82.26 1.51 1.51 0 0 0 .41-.06v1.08a3.41 3.41 0 0 1-.5.28 2.54 2.54 0 0 1-.51.17 2.58 2.58 0 0 1-.6.06 1.91 1.91 0 0 1-1.49-.61 2.46 2.46 0 0 1-.56-1.72 4.91 4.91 0 0 1 1.11-3.14 3.82 3.82 0 0 1 1.19-1 3.16 3.16 0 0 1 1.37-.35zm-12.35 6.38v-1a1.24 1.24 0 0 0 .31-.1 3.21 3.21 0 0 0 .66-.35l.31-1.36c-.37 0-.71.06-1 .11h-.25v-1.15c.49-.06 1-.1 1.56-.13a1 1 0 0 0 0-.12.88.88 0 0 0 0-.17.58.58 0 0 0-.38-.57 3 3 0 0 0-1.13-.16h-.1V8.3h.79a4.77 4.77 0 0 1 2.21.39 1.33 1.33 0 0 1 .73 1.2v.3a2.4 2.4 0 0 1 0 .32l-1 4.37h-2l.15-.68-.46.3zm0-6.36v1.36a4 4 0 0 0-1 .17c-.41.11-.72.21-.93.28h-.19l.31-1.52c.24-.06.61-.13 1.11-.2l.72-.09zm0 2.51V12a3.61 3.61 0 0 0-.57.15 1.15 1.15 0 0 0-.53.35 1 1 0 0 0-.18.61.5.5 0 0 0 .24.47 1.5 1.5 0 0 0 .71.13 1.35 1.35 0 0 0 .33 0v1l-.24.12a3.82 3.82 0 0 1-.6.2 3.24 3.24 0 0 1-.78.07 1.9 1.9 0 0 1-1.31-.45 1.49 1.49 0 0 1-.51-1.17 2.27 2.27 0 0 1 .36-1.29 2.49 2.49 0 0 1 1.07-.84 6.12 6.12 0 0 1 1.59-.43l.42-.06zM214 14.66v-1a1.39 1.39 0 0 0 .31-.1 3.13 3.13 0 0 0 .65-.35l.32-1.36c-.37 0-.71.06-1 .11L214 12v-1.19c.49-.06 1-.1 1.56-.13a1 1 0 0 0 0-.12.88.88 0 0 0 0-.17.58.58 0 0 0-.38-.57 3 3 0 0 0-1.13-.16H214V8.3h.79a4.77 4.77 0 0 1 2.21.39 1.33 1.33 0 0 1 .71 1.23v.3a2.4 2.4 0 0 1-.05.32l-1 4.37h-2l.15-.68-.46.3-.27.16zm16.1-4.78v.39c0 .14-.05.28-.08.43l-1 4.18H227l.74-3.21c.05-.22.1-.43.14-.63a2.76 2.76 0 0 0 .06-.5.57.57 0 0 0-.19-.48 1 1 0 0 0-.65-.16 1.51 1.51 0 0 0-.51.11 5.46 5.46 0 0 0-.68.32l-1 4.55h-2.09l.75-3.21c0-.19.08-.39.13-.61a2.88 2.88 0 0 0 .06-.49.63.63 0 0 0-.18-.51 1 1 0 0 0-.65-.16 1.39 1.39 0 0 0-.53.12 4.74 4.74 0 0 0-.66.31l-1.06 4.55h-2.07L220 8.45h2.07l-.16.71a9.34 9.34 0 0 1 1.13-.65 2.55 2.55 0 0 1 1.1-.23 1.92 1.92 0 0 1 1.07.28 1.47 1.47 0 0 1 .6.83 8.51 8.51 0 0 1 1.38-.83 2.71 2.71 0 0 1 1.17-.28 1.79 1.79 0 0 1 1.29.41 1.55 1.55 0 0 1 .48 1.19zM214 8.3v1.36a4 4 0 0 0-1 .17c-.41.11-.72.21-.93.28h-.19l.31-1.52c.24-.06.61-.13 1.11-.2q.36-.06.72-.09zm0 2.51V12a3.61 3.61 0 0 0-.57.15 1.15 1.15 0 0 0-.53.35 1 1 0 0 0-.19.61.5.5 0 0 0 .25.47 1.5 1.5 0 0 0 .71.13 1.35 1.35 0 0 0 .33 0v1l-.24.12a3.82 3.82 0 0 1-.6.2 3.24 3.24 0 0 1-.78.07 1.9 1.9 0 0 1-1.31-.45 1.69 1.69 0 0 1-.28-.32v-1.96a1.71 1.71 0 0 1 .13-.23 2.49 2.49 0 0 1 1.08-.84 6 6 0 0 1 1.59-.43l.42-.06zm-3.21-1.39v-1h.23zm0-1v1l-.23 1h-.19a1.43 1.43 0 0 0-.38-.07 4.26 4.26 0 0 0-.5 0 4.14 4.14 0 0 0-.79.06 4.55 4.55 0 0 0-.77.19l-1 4.3h-2.07l1.49-6.43h2.07l-.22 1a6.58 6.58 0 0 1 1.17-.7 2.7 2.7 0 0 1 1.17-.27h.25zm0 3.93a2.36 2.36 0 0 0-.23 1.06 1.56 1.56 0 0 0 .23.85v-1.89zm-10.28 4.74v-1.75a1.26 1.26 0 0 0 .27-.37 3 3 0 0 0 .24-.72v-.12a5.09 5.09 0 0 1-.54.32V13.2a1.09 1.09 0 0 0 .24-.07 4.58 4.58 0 0 0 .59-.27l.69-2.92a2.17 2.17 0 0 0-.43-.14 2.4 2.4 0 0 0-.48-.06 2.12 2.12 0 0 0-.57.07V8.28a3.44 3.44 0 0 1 1 .13 2.62 2.62 0 0 1 .73.33l.14-.29h2l-1.29 5.69a5 5 0 0 1-.61 1.52 3 3 0 0 1-.94 1 4.06 4.06 0 0 1-1.01.45zm0-8.83v1.55a1.76 1.76 0 0 0-.91.62 2.69 2.69 0 0 0-.56 1.78 1.15 1.15 0 0 0 .23.76 1.11 1.11 0 0 0 .87.28 1.57 1.57 0 0 0 .37-.05v1.25l-.35.16a2.59 2.59 0 0 1-1 .18 2.44 2.44 0 0 1-1.68-.54 2.09 2.09 0 0 1-.61-1.65A4.51 4.51 0 0 1 198 9.49a3.3 3.3 0 0 1 2.57-1.21zm0 7.06v1.77h-.18a7 7 0 0 1-1.51.15 11.45 11.45 0 0 1-1.33-.08 12 12 0 0 1-1.07-.19l.32-1.58h.26a7 7 0 0 0 1 .29 3.94 3.94 0 0 0 1.81 0 1.68 1.68 0 0 0 .63-.29l.12-.12zm-8.08-.29v-1.4a2.17 2.17 0 0 0 .35-.15 1.85 1.85 0 0 0 .58-.57 3.12 3.12 0 0 0 .4-.87 4.28 4.28 0 0 0 .14-1.16 1.43 1.43 0 0 0-.26-.91 1 1 0 0 0-.82-.31 1.61 1.61 0 0 0-.39 0V8.29h.64a3.25 3.25 0 0 1 2.21.68 2.38 2.38 0 0 1 .76 1.88 4.73 4.73 0 0 1-.3 1.69 3.9 3.9 0 0 1-.86 1.36 4 4 0 0 1-1.32.9 3.9 3.9 0 0 1-1.1.25zm0-6.76V9.7a1.24 1.24 0 0 0-.37.17 2 2 0 0 0-.59.6 3.18 3.18 0 0 0-.36.89 4.48 4.48 0 0 0-.14 1.1 1.31 1.31 0 0 0 .29.94 1.14 1.14 0 0 0 .8.28 1.5 1.5 0 0 0 .37 0v1.42a6.4 6.4 0 0 1-.64 0 3.19 3.19 0 0 1-2.2-.69 2.17 2.17 0 0 1-.69-1.21v-1.53a4.38 4.38 0 0 1 .21-.81A3.86 3.86 0 0 1 190 9.5a3.93 3.93 0 0 1 1.33-.91 4.35 4.35 0 0 1 1.14-.3zm-3.53.46l.06-.3h-.06zm-6.1 0a2.91 2.91 0 0 1-1.26 2.45 5.11 5.11 0 0 1-2.54.88v-1.6a2 2 0 0 0 .9-.36 1.36 1.36 0 0 0 .56-1.16.83.83 0 0 0-.36-.74 2 2 0 0 0-1.04-.2V6.36h.36a8.74 8.74 0 0 1 1.45.11 3.07 3.07 0 0 1 1.08.4 2 2 0 0 1 .68.73 2.48 2.48 0 0 1 .23 1.12zm6.1-.27v.3l-.39 1.67h-.19a1.52 1.52 0 0 0-.39-.07 4 4 0 0 0-.49 0 4.08 4.08 0 0 0-.79.06 4.9 4.9 0 0 0-.78.19l-1 4.3h-2.07l1.48-6.43h2.08l-.22 1a6.88 6.88 0 0 1 1.16-.7 2.77 2.77 0 0 1 1.17-.27h.42zm0 3.22a4.47 4.47 0 0 0-.07.82 3 3 0 0 0 .07.69zm-9.9.38a7.74 7.74 0 0 1-1 .06h-.83l-.64 2.77h-2.21l2-8.52H179V8h-.86l-.59 2.55h.79a4.43 4.43 0 0 0 .66-.05zM271.89 30v-.3l1.9-8.22H280l-.37 1.61h-4l-.35 1.52H279l-.38 1.62h-3.69l-.5 2.15h4L278 30zm0-8.23l.07-.29h-.07zm0-.29v.29l-.31 1.32h-4l-.36 1.52h3.69l-.37 1.62h-3.7l-.49 2.15h4L270 30h-6.18l2-8.52zm0 8.22l-.07.3h.07v-.3zm-12-2.53V25.6a2.15 2.15 0 0 0 .9-.35 1.36 1.36 0 0 0 .55-1.17.81.81 0 0 0-.36-.73 1.93 1.93 0 0 0-1.07-.24v-1.59h.35a7.82 7.82 0 0 1 1.46.11 3.22 3.22 0 0 1 1.07.39 2 2 0 0 1 .69.73 2.51 2.51 0 0 1 .23 1.12 2.91 2.91 0 0 1-1.26 2.46 5.11 5.11 0 0 1-2.55.88zm0-5.69v1.59H259l-.59 2.55h.79a3.37 3.37 0 0 0 .66-.06v1.61c-.31 0-.64.05-1 .05h-.84l-.59 2.78h-2.2l2-8.52zM237 29.82v-1l.32-.1a3.72 3.72 0 0 0 .65-.36l.31-1.36-1 .11h-.25V26c.5-.06 1-.11 1.57-.14a.89.89 0 0 1 0-.11.5.5 0 0 0 0-.18.56.56 0 0 0-.38-.56 2.89 2.89 0 0 0-1.12-.17h-.1v-1.38h.79a4.79 4.79 0 0 1 2.22.39 1.31 1.31 0 0 1 .71 1.23v.29a1.3 1.3 0 0 1-.06.32l-1 4.38h-2l.15-.69-.47.31-.27.16zm13.23-2.75h-4.36l.38-1.65h4.36zM237 23.46v1.35a4.52 4.52 0 0 0-1 .17c-.41.12-.72.21-.92.29h-.19l.3-1.52c.24-.06.61-.13 1.12-.21.24 0 .48-.06.71-.08zm0 2.54v1.18a3.47 3.47 0 0 0-.56.15 1.13 1.13 0 0 0-.54.35.94.94 0 0 0-.18.61.48.48 0 0 0 .24.46 1.51 1.51 0 0 0 .71.14 1.86 1.86 0 0 0 .33 0v1l-.24.12a4.22 4.22 0 0 1-.6.2 3.85 3.85 0 0 1-.78.07 1.87 1.87 0 0 1-1.3-.45 1.48 1.48 0 0 1-.43-.63v-1.29a2 2 0 0 1 .28-.61 2.43 2.43 0 0 1 1.07-.85 5.93 5.93 0 0 1 1.58-.43L237 26zm-3.35-1.69v-.37h.09zm0-.37v.37l-.35 1.42h-.3a2.24 2.24 0 0 0-.76-.6 2.32 2.32 0 0 0-1-.2 2 2 0 0 0-1.57.69 2.58 2.58 0 0 0-.59 1.72 1.44 1.44 0 0 0 .37 1.07 1.55 1.55 0 0 0 1.13.36 2.42 2.42 0 0 0 1.08-.25 3.8 3.8 0 0 0 .84-.54h.29l-.43 1.76a6.23 6.23 0 0 1-1.09.38 5 5 0 0 1-1.21.12 4.46 4.46 0 0 1-1.23-.17 2.62 2.62 0 0 1-1-.5 2.41 2.41 0 0 1-.66-.85 2.89 2.89 0 0 1-.23-1.18 3.88 3.88 0 0 1 .33-1.6 4 4 0 0 1 .92-1.3 4.33 4.33 0 0 1 1.43-.86 5.16 5.16 0 0 1 1.82-.32 5.82 5.82 0 0 1 1.17.13 4.46 4.46 0 0 1 1 .35zm0 4a2.88 2.88 0 0 0-.08.68 1.91 1.91 0 0 0 .08.54v-1.25zM222.88 30v-.56l1.36-5.87h2.07L224.82 30zm0-5.87l.13-.56h-.13v.56zm4.06-3l-.36 1.56h-2.19l.36-1.56zm-4.06 2.48v.56l-.19.8h-1.93l-.53 2.31c0 .16-.08.32-.11.49a1.68 1.68 0 0 0-.05.41.54.54 0 0 0 .19.48 1 1 0 0 0 .59.13 1.91 1.91 0 0 0 .42-.06 2.35 2.35 0 0 0 .42-.13h.17l-.32 1.4a5.71 5.71 0 0 1-.74.13 8.09 8.09 0 0 1-.92.05 2.57 2.57 0 0 1-1.53-.35 1.22 1.22 0 0 1-.46-1 2.1 2.1 0 0 1 0-.36c0-.11 0-.25.07-.4l.7-3h-.84l.31-1.36h.87l.42-1.84h2.07l-.43 1.84zm0 5.87l-.13.56h.13v-.56zm-9.42.73v-1.46h.3a3.63 3.63 0 0 0 1.28-.23 5.7 5.7 0 0 0 1.05-.51h.23l-.38 1.65a6.06 6.06 0 0 1-1.27.4 7.71 7.71 0 0 1-1.21.14zm0-3V26h1.37v-.37a.85.85 0 0 0-.29-.69 1.18 1.18 0 0 0-.8-.24h-.32v-1.26a4.93 4.93 0 0 1 .55 0 3.43 3.43 0 0 1 2.17.58 2.08 2.08 0 0 1 .73 1.71 3.94 3.94 0 0 1-.08.77 6.61 6.61 0 0 1-.2.73zm0-4.51v-1l1-1.27h2.18v.11l-2.51 2.13zm0-1v1h-.77l.77-1zm0 1.72v1.28a1.5 1.5 0 0 0-.75.32 2.2 2.2 0 0 0-.66 1h1.41v1.2h-1.6v.13a1.27 1.27 0 0 0 .46 1.05 2 2 0 0 0 1.14.37v1.46h-.2a3.9 3.9 0 0 1-2.54-.73 2.45 2.45 0 0 1-.89-2 4.43 4.43 0 0 1 .29-1.61 3.9 3.9 0 0 1 .84-1.28 3.67 3.67 0 0 1 1.32-.85 4.17 4.17 0 0 1 1.18-.29zm-8.18 8.82V30.5a1.46 1.46 0 0 0 .27-.38 2.8 2.8 0 0 0 .24-.71v-.12a5 5 0 0 1-.54.31v-1.24l.24-.07a3.56 3.56 0 0 0 .59-.28l.65-2.91a2.29 2.29 0 0 0-.44-.14 1.78 1.78 0 0 0-.47-.07 2.12 2.12 0 0 0-.57.07v-1.53a3.85 3.85 0 0 1 1 .13 2.62 2.62 0 0 1 .73.33l.14-.28h2l-1.3 5.69a4.82 4.82 0 0 1-.6 1.52 3.23 3.23 0 0 1-.94 1 3.73 3.73 0 0 1-1 .44zm0-8.83V25a1.83 1.83 0 0 0-.92.62 2.79 2.79 0 0 0-.56 1.78.92.92 0 0 0 1.11 1 1.55 1.55 0 0 0 .37 0v1.2l-.35.17a2.59 2.59 0 0 1-1 .17 2.47 2.47 0 0 1-1.69-.54 2.1 2.1 0 0 1-.6-1.64 4.49 4.49 0 0 1 1.07-3.11 3.31 3.31 0 0 1 2.57-1.22zm0 7.07v1.76l-.18.05a7 7 0 0 1-1.51.15 9.58 9.58 0 0 1-1.33-.09l-.78-.12V30.6h.25a5.85 5.85 0 0 0 1 .29 3.63 3.63 0 0 0 .87.11 3.76 3.76 0 0 0 .94-.1 1.42 1.42 0 0 0 .63-.29l.12-.11zm-3.8-5.66l.29-1.23h-.29zm0-1.25v1.25l-.17.73h-.18a2.32 2.32 0 0 0-.39-.07h-.5a4.93 4.93 0 0 0-.78.06 4.43 4.43 0 0 0-.78.19l-1 4.31h-2.07l1.49-6.43h2.07l-.22.94a7.15 7.15 0 0 1 1.17-.69 2.7 2.7 0 0 1 1.17-.27zm0 7.15v1.51l-.29-.07.29-1.44zm-9.82-.53v-1.44h.3a3.63 3.63 0 0 0 1.28-.23 5.7 5.7 0 0 0 1-.51h.23l-.38 1.65a6.25 6.25 0 0 1-1.27.4 7.71 7.71 0 0 1-1.21.14zm0-3V26H193v-.37a.85.85 0 0 0-.29-.69 1.18 1.18 0 0 0-.8-.24h-.32v-1.26a4.93 4.93 0 0 1 .55 0 3.43 3.43 0 0 1 2.17.58 2.08 2.08 0 0 1 .73 1.71 3.94 3.94 0 0 1-.08.77 6.61 6.61 0 0 1-.2.73zm-11.93-5.68l-.13.53v-.53zm11.93 1.92v1.28a1.5 1.5 0 0 0-.75.32 2.12 2.12 0 0 0-.66 1h1.41v1.2h-1.6v.13a1.27 1.27 0 0 0 .46 1.05 2 2 0 0 0 1.14.37v1.46h-.2a3.9 3.9 0 0 1-2.54-.73 2.45 2.45 0 0 1-.89-2 4.43 4.43 0 0 1 .29-1.61 4.06 4.06 0 0 1 .84-1.28 3.58 3.58 0 0 1 1.32-.85 4.17 4.17 0 0 1 1.18-.29zM179.6 30v-.5l1.4-5.89h2l-.17.71a7.42 7.42 0 0 1 1.16-.65 2.72 2.72 0 0 1 1.15-.24 2 2 0 0 1 1.35.42 1.52 1.52 0 0 1 .48 1.21 2.64 2.64 0 0 1 0 .38 3.2 3.2 0 0 1-.07.41L186 30h-2.09l.74-3.19c.05-.24.09-.44.12-.61a2.69 2.69 0 0 0 .05-.47.67.67 0 0 0-.19-.54 1 1 0 0 0-.69-.17 1.8 1.8 0 0 0-.57.1 5.2 5.2 0 0 0-.72.32l-1 4.56zm0-8l-.25 1.08h-4l-.35 1.57h3.69l-.38 1.62h-3.69l-.49 2.15h4l-.37 1.58h-6.18l2-8.52h6v.53zm0 7.45l-.12.54h.12zm-26.27 7.9L159.88.17h-.92l-6.55 37.18h.92z"/></svg>