<svg xmlns="http://www.w3.org/2000/svg" viewBox="0 0 300.79 64.61"><path d="M0 48.41V3.35h22.09L20.17 8H4.99v15.04h15.04v4.58H4.99v16.14h17.3v4.65H0zm36.17.68c-4 0-5.67-2.53-5.67-6V0h5v40.89c0 3.07.75 3.69 2.66 3.69a6.28 6.28 0 0 0 1.71-.21l.61 3.63a8.82 8.82 0 0 1-4.31 1.09m13.83-16c0 6.16 3.56 11.63 10.74 11.63a15.37 15.37 0 0 0 7.66-2.33l1.5 3.42a17.21 17.21 0 0 1-10.19 3.28c-10.12 0-15-8.27-15-17.5S50 15.25 57.78 15.25c8.34 0 12.92 6.63 12.92 16.68v1.16zm7.87-13.6c-4.79 0-7.8 4.24-7.8 9.36H65.3c0-4.51-2.53-9.36-7.45-9.36M87 49.09c-4.65 0-6.91-2.73-6.91-6.9V20.31H74.8v-4.24h5.27V9l5-1.71v8.82H95l-1.8 4.2h-8.14v20.37c0 2.74 1 4 3.15 4A9.77 9.77 0 0 0 94 42.32l1.57 3.56A15.1 15.1 0 0 1 87 49.09m29.45-28.03a8.13 8.13 0 0 0-2.94-.55c-2.19 0-4.52 1.3-7.25 3.9v24h-5V16.07h4.1l.68 3.69c4.45-4 6.91-4.51 9-4.51a6.47 6.47 0 0 1 3.56 1zm29.33 24a13.94 13.94 0 0 1-10.26 4 13.65 13.65 0 0 1-10.05-4c-2.94-3-4.51-7.59-4.51-12.93s1.64-9.77 4.51-12.78a14.53 14.53 0 0 1 20.38 0c2.87 3 4.51 7.45 4.51 12.78s-1.64 9.85-4.58 12.86m-10.19-25.5c-6.08 0-9.57 4.92-9.57 12.58s3.62 12.72 9.64 12.72 9.64-5.06 9.64-12.72-3.49-12.58-9.71-12.58m32.34 29.6a13.91 13.91 0 0 1-5.4-1v16.52h-5V17.44a30.92 30.92 0 0 1 10.6-2.19c9.78 0 16 6.29 16 16.61 0 11.28-8.14 17.23-16.21 17.23m.14-29.33a17.56 17.56 0 0 0-5.54.82v22.91a11.06 11.06 0 0 0 5.2 1.29c6.77 0 11.35-4.85 11.35-12.85 0-8.48-5.13-12.17-11-12.17m42.67 28.65l-1.3-3.15a13.73 13.73 0 0 1-9.91 3.83 9.62 9.62 0 0 1-9.92-9.91c0-6.36 4.44-10.26 13-10.53l6.57-.21v-1.5c0-5.54-2.88-7.39-7-7.39a13.26 13.26 0 0 0-8.48 3l-2.05-3.62a18.1 18.1 0 0 1 11.42-3.69c6.15 0 11.08 2.66 11.08 10.94V36c0 9.17.27 11.35.68 12.38zm-1.57-15.52l-6.43.2c-5.81.21-8.14 2.19-8.14 5.75 0 3.28 2.05 5.94 6.29 5.94a11 11 0 0 0 8.28-3.69zm35.21 15.52l-1.3-3.35a16.5 16.5 0 0 1-10.46 4c-4.38 0-9.85-2.25-9.85-11.35V16.07h5v21.19c0 5.41 2.26 7.53 6.29 7.53a11.58 11.58 0 0 0 8.62-4.31V16.07h5v18.8c0 10.19.21 12.17.69 13.54zm18.53.68c-4 0-5.67-2.53-5.67-6V0h5v40.89c0 3.07.75 3.69 2.66 3.69a6.28 6.28 0 0 0 1.71-.21l.62 3.63a8.82 8.82 0 0 1-4.31 1.09m33.29-4.03a14 14 0 0 1-10.26 4 13.65 13.65 0 0 1-10.05-4c-2.94-3-4.51-7.59-4.51-12.93s1.64-9.77 4.51-12.78a14.53 14.53 0 0 1 20.38 0c2.87 3 4.51 7.45 4.51 12.78s-1.64 9.85-4.58 12.86M286 19.49c-6.08 0-9.57 4.92-9.57 12.58s3.62 12.72 9.64 12.72 9.64-5.06 9.64-12.72-3.47-12.58-9.71-12.58"/></svg>