<svg xmlns="http://www.w3.org/2000/svg" viewBox="0 0 446.48 152.03"><path fill="#00a6b4" d="M169.68 133.83L155 114.75c-1.38-1.83-2.32-3.06-3.21-4.45h-.1c.1 1.09.15 2.82.15 4.35v19.18h-6v-32.58h6.09l14.18 18.34a43.06 43.06 0 0 1 3.22 4.55h.1c-.1-1.43-.1-3.31-.1-4.74v-18.15h5.93v32.58zm25.96 0l-1-2.07a9.7 9.7 0 0 1-6.77 2.57c-4.31 0-7.67-2.92-7.67-7.52 0-4.84 3.81-7.46 9.79-7.66l4.15-.15v-.59c0-2.82-2-4-4.45-4a11.49 11.49 0 0 0-6 1.73l-1.92-3.7a15.37 15.37 0 0 1 9.14-2.58c5.79 0 9.3 2.38 9.3 8.51v9.24c0 3.36.09 5.1.44 6.18zm-1.49-10.73l-3.36.1c-3.21.1-4.64 1.19-4.64 3.17s1.33 3.26 3.8 3.26a6.17 6.17 0 0 0 4.2-1.48zm18.39 11.23a16.37 16.37 0 0 1-8.65-2.18l1.93-4.35a11.33 11.33 0 0 0 6.28 2.08c2.42 0 4-.89 4-2.47 0-4.21-10.77-2.62-10.77-10.58 0-4.06 3.21-6.93 8.85-6.93a17.46 17.46 0 0 1 6.82 1.19v5a17.23 17.23 0 0 0-6.62-1.54c-2 0-3.32.65-3.32 2 0 3.71 11 2.47 11 10.53 0 5.24-4.45 7.27-9.5 7.27m30.59-10.65c.1 3.46 3 5.88 6.57 5.88a12.14 12.14 0 0 0 6.08-1.58l1.44 3.81a15 15 0 0 1-8.51 2.57c-8.15 0-11.61-5.94-11.61-12.21 0-6.68 3.95-12.22 10.62-12.22 6.33 0 10.49 4.8 10.49 12.07v1.73zm4.45-9.35c-2.87 0-4.6 2.57-4.6 5.15h9.1c-.1-2.53-1.49-5.15-4.5-5.15m21.9 19.98a16.32 16.32 0 0 1-8.65-2.18l1.92-4.35a11.33 11.33 0 0 0 6.28 2.08c2.43 0 4-.89 4-2.47 0-4.21-10.78-2.62-10.78-10.58 0-4.06 3.21-6.93 8.85-6.93a17.43 17.43 0 0 1 6.82 1.19v5a17.23 17.23 0 0 0-6.62-1.54c-2 0-3.32.65-3.32 2 0 3.71 11 2.47 11 10.53 0 5.24-4.45 7.27-9.49 7.27m24.31-.02c-7.61 0-11.52-5.49-11.52-12.07 0-7.11 5.14-12.36 12.11-12.36a12.47 12.47 0 0 1 6.68 1.64l-.1 4.84a9.27 9.27 0 0 0-5.88-1.93c-4 0-6.88 3.17-6.88 7.52 0 4 2.18 7.56 6.83 7.56a10.55 10.55 0 0 0 5.53-1.63l1.49 3.91a15.63 15.63 0 0 1-8.26 2.52m30.65-3.33a11.46 11.46 0 0 1-8.45 3.36 11.59 11.59 0 0 1-8.06-2.92 12.25 12.25 0 0 1-3.61-9.15 12.73 12.73 0 0 1 3.41-9 12.36 12.36 0 0 1 16.91 0 13.81 13.81 0 0 1-.2 17.7M316 114.6c-3.76 0-5.59 3.17-5.59 7.52 0 4.54 2.13 7.61 5.74 7.61s5.58-3.21 5.58-7.61-2.07-7.52-5.73-7.52m21.67 19.73c-3.9 0-5.39-2.23-5.39-5.14V98.83h5.94v27.74c0 1.73.34 2.42 1.58 2.42a7.34 7.34 0 0 0 1.73-.25l.74 4.4a9.33 9.33 0 0 1-4.6 1.19m22.45-.5l-1-2.07a9.7 9.7 0 0 1-6.77 2.57c-4.31 0-7.67-2.92-7.67-7.52 0-4.84 3.81-7.46 9.79-7.66l4.15-.15v-.59c0-2.82-2-4-4.45-4a11.49 11.49 0 0 0-6 1.73l-1.92-3.7a15.37 15.37 0 0 1 9.14-2.58c5.78 0 9.29 2.38 9.29 8.51v9.24c0 3.36.1 5.1.45 6.18zm-1.49-10.73l-3.36.1c-3.21.1-4.64 1.19-4.64 3.17s1.33 3.26 3.8 3.26a6.17 6.17 0 0 0 4.2-1.48zM377 134.33a16.37 16.37 0 0 1-8.65-2.18l1.93-4.35a11.33 11.33 0 0 0 6.28 2.08c2.42 0 4-.89 4-2.47 0-4.21-10.77-2.62-10.77-10.58 0-4.06 3.21-6.93 8.85-6.93a17.46 17.46 0 0 1 6.82 1.19v5a17.23 17.23 0 0 0-6.63-1.54c-2 0-3.31.65-3.31 2 0 3.71 11 2.47 11 10.53 0 5.24-4.45 7.27-9.5 7.27"/><path fill="#002838" d="M145.69 77.92V32.86h22.09l-1.92 4.65h-15.18v15.04h15.05v4.58h-15.05v16.14h17.3v4.65h-22.29zm36.17.68c-4 0-5.67-2.53-5.67-5.95V29.51h5V70.4c0 3.07.75 3.69 2.67 3.69a6.31 6.31 0 0 0 1.71-.21l.61 3.63a8.79 8.79 0 0 1-4.31 1.09m13.81-16c0 6.15 3.55 11.62 10.73 11.62a15.36 15.36 0 0 0 7.66-2.32l1.5 3.42a17.28 17.28 0 0 1-10.19 3.28c-10.11 0-15-8.27-15-17.5s5.34-16.35 13.13-16.35c8.34 0 12.92 6.64 12.92 16.69v1.16zm7.86-13.6c-4.79 0-7.8 4.24-7.8 9.37H211c0-4.51-2.53-9.37-7.45-9.37m29.12 29.6c-4.65 0-6.91-2.73-6.91-6.9V49.82h-5.26v-4.24h5.26v-7.12l5-1.7v8.82h9.92l-1.78 4.24h-8.14v20.37c0 2.74 1 4 3.15 4a9.77 9.77 0 0 0 5.74-2.33l1.57 3.56a15.15 15.15 0 0 1-8.54 3.21m29.46-28.06a7.92 7.92 0 0 0-2.94-.57c-2.19 0-4.51 1.3-7.25 3.9v24h-5V45.58h4.1l.68 3.69c4.45-4 6.91-4.52 9-4.52a6.56 6.56 0 0 1 3.56 1zm29.33 24a14 14 0 0 1-10.25 4 13.69 13.69 0 0 1-10.06-4c-2.94-3-4.51-7.59-4.51-12.93s1.64-9.78 4.51-12.78a14.51 14.51 0 0 1 20.38 0c2.87 3 4.51 7.45 4.51 12.78s-1.64 9.85-4.58 12.86M281.28 49c-6.08 0-9.57 4.93-9.57 12.59s3.62 12.71 9.64 12.71S291 69.23 291 61.58 287.51 49 281.28 49m32.35 29.6a13.83 13.83 0 0 1-5.4-1v16.52h-5V46.94a31.16 31.16 0 0 1 10.6-2.19c9.78 0 16 6.3 16 16.62 0 11.28-8.14 17.23-16.2 17.23m.13-29.33a17.45 17.45 0 0 0-5.53.82V73a11 11 0 0 0 5.19 1.3c6.77 0 11.35-4.85 11.35-12.85 0-8.48-5.13-12.17-11-12.17m42.66 28.64l-1.3-3.15a13.73 13.73 0 0 1-9.91 3.83 9.62 9.62 0 0 1-9.92-9.91c0-6.36 4.45-10.26 13-10.53l6.57-.21v-1.5c0-5.54-2.87-7.39-7-7.39a13.26 13.26 0 0 0-8.48 3l-2-3.62a18 18 0 0 1 11.42-3.7c6.16 0 11.08 2.67 11.08 11v9.84c0 9.16.27 11.35.68 12.38zm-1.57-15.52l-6.43.2c-5.81.21-8.14 2.19-8.14 5.74 0 3.29 2 6 6.29 6a11 11 0 0 0 8.28-3.69zm35.21 15.52l-1.3-3.35a16.5 16.5 0 0 1-10.46 4c-4.37 0-9.84-2.25-9.84-11.35V45.58h5v21.19c0 5.4 2.25 7.52 6.29 7.52a11.54 11.54 0 0 0 8.6-4.29V45.58h5v18.8c0 10.19.21 12.17.69 13.54zm18.53.68c-4 0-5.67-2.53-5.67-5.95V29.51h5V70.4c0 3.07.75 3.69 2.67 3.69a6.31 6.31 0 0 0 1.71-.21l.61 3.63a8.79 8.79 0 0 1-4.31 1.09m33.29-4.03a14 14 0 0 1-10.26 4 13.69 13.69 0 0 1-10.05-4c-2.94-3-4.51-7.59-4.51-12.93s1.64-9.78 4.51-12.78a14.51 14.51 0 0 1 20.38 0c2.87 3 4.51 7.45 4.51 12.78s-1.64 9.85-4.58 12.86M431.71 49c-6.08 0-9.57 4.93-9.57 12.59s3.63 12.71 9.64 12.71 9.64-5.06 9.64-12.71S437.94 49 431.71 49M88.03 66.16H72.67V50.81h-9.3v15.35H48.02v9.31h15.35v15.35h9.3V75.47h15.36v-9.31z"/><path fill="#00a6b4" d="M125.74 117.54L91.25 83.15V99.8a36.87 36.87 0 1 1 .42-59.69V3.5a69.81 69.81 0 1 0-.37 132.73v15.8z"/></svg>